# xmcd
#
# Track frame offsets:
#	150
#	11362
#	30280
#	47622
#	59387
#	70937
#	83220
#	107955
#	120912
#	132592
#
# Disc length: 1935
#
# Revision: 2
# Processed by: cddbd v1.5.1PL0 Copyright (c) Steve Scherf et al.
# Submitted via: CDex 1.30
# Normalized: r1:TDELIM( - )
#
DISCID=7b078d0a
DTITLE=Various Artist - Country's Greatest Singer Songwriters
DYEAR=1993
DGENRE=Country
TTITLE0=Roger Miller - King of the Road
TTITLE1=Old Dogs - Children and Watermelon Rind
TTITLE2=Ed Bruce - Mammas Don't Let Your Babies Grow Up To Be Cowboys
TTITLE3=Ernest Tubb - Walking the Floor Over You
TTITLE4=Bill Anderson - The Tip of My Fingers
TTITLE5=Johnny Cash - I Walk the Line
TTITLE6=Jerry Jeff Walker - Mr Bojangles
TTITLE7=Willie Nelson - Crazy
TTITLE8=George Jones - The Window Up Above
TTITLE9=Merle Haggard - Sing Me Back Home
EXTD=YEAR: 1993  ID3G:   2
EXTT0=
EXTT1=
EXTT2=
EXTT3=
EXTT4=
EXTT5=
EXTT6=
EXTT7=
EXTT8=
EXTT9=
PLAYORDER=
